<svg width="143" height="143" viewBox="0 0 143 143" fill="none" xmlns="http://www.w3.org/2000/svg">
<path d="M0 30.9C0 13.8344 13.3203 0 29.7517 0H113.248C129.68 0 143 13.8344 143 30.9001V94.1249C143 111.191 129.68 125.025 113.248 125.025H29.7517C13.3203 125.025 0 111.191 0 94.1249V30.9Z" fill="url(#paint0_linear_1_17)"/>
<path d="M17.2752 138.007C17.2752 142.244 22.0431 144.548 25.1642 141.819L48.4822 121.432C51.9067 118.438 49.8682 112.636 45.3919 112.636H22.0738C19.4236 112.636 17.2752 114.867 17.2752 117.62L17.2752 138.007Z" fill="url(#paint1_linear_1_17)"/>
<path d="M110.04 23.04C109.72 27.12 109.48 31.04 109.32 34.8C109.24 38.56 109.2 41.44 109.2 43.44C109.2 45.2 109.24 46.88 109.32 48.48C109.4 50.08 109.48 51.44 109.56 52.56H106.8C105.52 45.84 103.88 40.52 101.88 36.6C99.96 32.68 97.64 29.92 94.92 28.32C92.2 26.64 89 25.8 85.32 25.8H82.56V94.32C82.56 97.52 82.88 99.92 83.52 101.52C84.24 103.12 85.52 104.2 87.36 104.76C89.2 105.24 91.88 105.52 95.4 105.6V108C92.92 107.92 89.6 107.84 85.44 107.76C81.36 107.68 77.08 107.64 72.6 107.64C68.2 107.64 64.04 107.68 60.12 107.76C56.2 107.84 53.04 107.92 50.64 108V105.6C54.24 105.52 56.96 105.24 58.8 104.76C60.64 104.2 61.88 103.12 62.52 101.52C63.16 99.92 63.48 97.52 63.48 94.32V25.8H60.84C57.16 25.8 53.96 26.64 51.24 28.32C48.52 29.92 46.2 32.68 44.28 36.6C42.36 40.44 40.68 45.76 39.24 52.56H36.48C36.64 51.44 36.72 50.08 36.72 48.48C36.8 46.88 36.84 45.2 36.84 43.44C36.84 41.44 36.76 38.56 36.6 34.8C36.52 31.04 36.32 27.12 36 23.04C39.68 23.12 43.68 23.2 48 23.28C52.4 23.36 56.8 23.4 61.2 23.4C65.6 23.4 69.56 23.4 73.08 23.4C76.68 23.4 80.64 23.4 84.96 23.4C89.36 23.4 93.76 23.36 98.16 23.28C102.56 23.2 106.52 23.12 110.04 23.04Z" fill="white"/>
<defs>
<linearGradient id="paint0_linear_1_17" x1="143" y1="142.539" x2="-5.18274" y2="5.60864" gradientUnits="userSpaceOnUse">
<stop offset="0.0528846" stop-color="#3EBB7E"/>
<stop offset="1" stop-color="#01978D"/>
</linearGradient>
<linearGradient id="paint1_linear_1_17" x1="143" y1="142.539" x2="-5.18274" y2="5.60864" gradientUnits="userSpaceOnUse">
<stop offset="0.0528846" stop-color="#3EBB7E"/>
<stop offset="1" stop-color="#01978D"/>
</linearGradient>
</defs>
</svg>
