<svg width="143" height="143" viewBox="0 0 143 143" fill="none" xmlns="http://www.w3.org/2000/svg">
<path d="M0 30.9C0 13.8344 13.3203 0 29.7517 0H113.248C129.68 0 143 13.8344 143 30.9001V94.1249C143 111.191 129.68 125.025 113.248 125.025H29.7517C15.5 125.025 0 111.191 0 94.1249V30.9Z" fill="url(#paint0_linear_1_17)"/>
<path d="M2.23269e-06 133.544C2.66055e-06 141.568 5.58125 145.932 9.23466 140.764L19.5 125.025H29.7517C33.3095 119.993 37.1696 92.7577 34.3292 86.6961C33.7924 85.5505 32.3981 85.9796 31.4725 86.8422L19.5 98L7.04351 86.7843C6.12529 85.9575 4.86016 85.3924 3.79022 86.0104C1.58482 87.2842 -2.20643e-07 90.8001 0 94.9378L2.23269e-06 133.544Z" fill="url(#paint1_linear_1_17)"/>
<path d="M103.62 26.12C103.327 29.86 103.107 33.4533 102.96 36.9C102.887 40.3467 102.85 42.9867 102.85 44.82C102.85 46.4333 102.887 47.9733 102.96 49.44C103.033 50.9067 103.107 52.1533 103.18 53.18H100.65C99.4767 47.02 97.9733 42.1433 96.14 38.55C94.38 34.9567 92.2533 32.4267 89.76 30.96C87.2667 29.42 84.3333 28.65 80.96 28.65H78.43V91.46C78.43 94.3933 78.7233 96.5933 79.31 98.06C79.97 99.5267 81.1433 100.517 82.83 101.03C84.5167 101.47 86.9733 101.727 90.2 101.8V104C87.9267 103.927 84.8833 103.853 81.07 103.78C77.33 103.707 73.4067 103.67 69.3 103.67C65.2667 103.67 61.4533 103.707 57.86 103.78C54.2667 103.853 51.37 103.927 49.17 104V101.8C52.47 101.727 54.9633 101.47 56.65 101.03C58.3367 100.517 59.4733 99.5267 60.06 98.06C60.6467 96.5933 60.94 94.3933 60.94 91.46V28.65H58.52C55.1467 28.65 52.2133 29.42 49.72 30.96C47.2267 32.4267 45.1 34.9567 43.34 38.55C41.58 42.07 40.04 46.9467 38.72 53.18H36.19C36.3367 52.1533 36.41 50.9067 36.41 49.44C36.4833 47.9733 36.52 46.4333 36.52 44.82C36.52 42.9867 36.4467 40.3467 36.3 36.9C36.2267 33.4533 36.0433 29.86 35.75 26.12C39.1233 26.1933 42.79 26.2667 46.75 26.34C50.7833 26.4133 54.8167 26.45 58.85 26.45C62.8833 26.45 66.5133 26.45 69.74 26.45C73.04 26.45 76.67 26.45 80.63 26.45C84.6633 26.45 88.6967 26.4133 92.73 26.34C96.7633 26.2667 100.393 26.1933 103.62 26.12Z" fill="white"/>
<defs>
<linearGradient id="paint0_linear_1_17" x1="143" y1="142.539" x2="-5.18274" y2="5.60864" gradientUnits="userSpaceOnUse">
<stop offset="0.1875" stop-color="#008D92"/>
<stop offset="0.841346" stop-color="#3EBB7E"/>
</linearGradient>
<linearGradient id="paint1_linear_1_17" x1="143" y1="142.539" x2="-5.18274" y2="5.60864" gradientUnits="userSpaceOnUse">
<stop offset="0.1875" stop-color="#008D92"/>
<stop offset="0.841346" stop-color="#3EBB7E"/>
</linearGradient>
</defs>
</svg>
